<svg id="Layer_1" data-name="Layer 1" xmlns="http://www.w3.org/2000/svg" viewBox="0 0 1080 1080"><defs><style>.cls-1{fill:#1dba8f;}.cls-2,.cls-3,.cls-4{fill:#fff;}.cls-3,.cls-4{font-size:57.67px;}.cls-3{font-family:MyriadHebrew-Regular, Myriad Hebrew;}.cls-4{font-family:JannaLT-Regular, Janna LT;}</style></defs><title>roshetta masr svg 2 </title><rect class="cls-1" x="288.94" y="281" width="493.92" height="241"/><path class="cls-2" d="M495.9,390.71A89.6,89.6,0,0,0,405,301.12c-49.08.69-88.78,41.38-88.31,90.47a89.61,89.61,0,0,0,62,84.39l-17,16.85,24.29.57L399.44,480l14.63-14.59,15-14.94,8.66,8.28,10.38,9.9,2.81-.26h0l17.6-1.59-6.2-6.21A89.36,89.36,0,0,0,495.9,390.71ZM395.63,350.32c11.84-.23,23,1.64,28.45,14.05a22.18,22.18,0,0,1-4.77,24.33c-6.46,6.17-15.84,5.72-24.14,5.72v23.75l1.37,1.32,20,19.09-26,25.75a74.78,74.78,0,0,1-53.85-101.51,72.23,72.23,0,0,1,5.2-10.32,74.74,74.74,0,1,1,109.91,97.62L440.63,439l16.74-16.69-.93-23.21-28,27.71-15.08-15.08.37-.1c16.58-4.65,28.78-20.35,28.78-39a41.43,41.43,0,0,0-11.47-28.55c-3.93-4.11-9.31-7.39-15-7.66l-32-.75a41,41,0,0,0-7.16.28,19,19,0,0,0-8.19,3.3l-8.92,6.1a3,3,0,0,0,1.82,5.22Z"/><text class="cls-3" transform="translate(544.23 408.17)">Roshetta</text><text class="cls-4" transform="translate(463.69 462.95)"> رصم ةتسور</text><circle class="cls-2" cx="670.91" cy="435.27" r="2.79"/><circle class="cls-2" cx="687.62" cy="435.27" r="2.79"/><circle class="cls-2" cx="703.4" cy="435.27" r="2.79"/></svg>