<svg id="Layer_1" data-name="Layer 1" xmlns="http://www.w3.org/2000/svg" viewBox="0 0 1080 1080"><defs><style>.cls-1{stroke:#000;stroke-miterlimit:10;}.cls-2{fill:#fff;}</style></defs><title>roshetta masr svg 3  </title><circle class="cls-1" cx="518.37" cy="508.83" r="157.83"/><path class="cls-2" d="M608,494a89.6,89.6,0,0,0-90.87-89.59c-49.08.69-88.78,41.38-88.31,90.47a89.61,89.61,0,0,0,62,84.39l-17,16.85,24.29.57,13.4-13.36,14.63-14.59,15-14.93,8.66,8.27,10.38,9.9,2.81-.26h0l17.6-1.59-6.2-6.21A89.36,89.36,0,0,0,608,494ZM507.69,453.59c11.84-.23,23,1.64,28.45,14.05A22.18,22.18,0,0,1,531.37,492c-6.46,6.17-15.84,5.72-24.14,5.72v23.75l1.37,1.32,20,19.09-26,25.75a74.78,74.78,0,0,1-53.85-101.51,72.23,72.23,0,0,1,5.2-10.32,74.74,74.74,0,1,1,109.91,97.62l-11.16-11.16,16.74-16.69-.93-23.21-28,27.72L525.43,515l.37-.1c16.58-4.65,28.78-20.35,28.78-39a41.43,41.43,0,0,0-11.47-28.55c-3.93-4.11-9.31-7.39-15-7.66l-32-.75a41,41,0,0,0-7.16.28,19.09,19.09,0,0,0-8.19,3.3c-3,2.05-5.95,4.07-8.92,6.11a3,3,0,0,0,1.82,5.21Z"/></svg>